<?xml version="1.0" encoding="utf-8"?>
<!-- Generator: Adobe Illustrator 16.0.0, SVG Export Plug-In . SVG Version: 6.00 Build 0)  -->
<!DOCTYPE svg PUBLIC "-//W3C//DTD SVG 1.1//EN" "http://www.w3.org/Graphics/SVG/1.1/DTD/svg11.dtd">
<svg version="1.1" id="Layer_1" xmlns="http://www.w3.org/2000/svg" xmlns:xlink="http://www.w3.org/1999/xlink" x="0px" y="0px"
	 width="9.7px" height="12.784px" viewBox="0 0 9.7 12.784" enable-background="new 0 0 9.7 12.784" xml:space="preserve">
<g>
	<g>
		<circle fill="none" stroke="#EF3F23" stroke-width="1.0611" stroke-miterlimit="10" cx="4.85" cy="8.425" r="3.828"/>
		<polyline fill="none" stroke="#EF3F23" stroke-width="1.0611" stroke-miterlimit="10" points="6.735,5.183 8.103,4.376 
			8.103,0.531 1.762,0.531 1.762,4.48 2.628,4.963 		"/>
	</g>
	<g>
		<path fill="#EF3F23" d="M3.615,10.235V9.92l0.402-0.39C4.985,8.609,5.428,8.12,5.428,7.548c0-0.385-0.181-0.74-0.746-0.74
			c-0.344,0-0.63,0.175-0.805,0.32L3.714,6.767C3.971,6.552,4.35,6.382,4.787,6.382c0.81,0,1.154,0.56,1.154,1.102
			c0,0.699-0.507,1.265-1.306,2.034l-0.297,0.28V9.81h1.696v0.425H3.615z"/>
	</g>
</g>
</svg>
