<?xml version="1.0" encoding="utf-8"?>
<!-- Generator: Adobe Illustrator 16.0.0, SVG Export Plug-In . SVG Version: 6.00 Build 0)  -->
<!DOCTYPE svg PUBLIC "-//W3C//DTD SVG 1.1//EN" "http://www.w3.org/Graphics/SVG/1.1/DTD/svg11.dtd">
<svg version="1.1" id="Layer_1" xmlns="http://www.w3.org/2000/svg" xmlns:xlink="http://www.w3.org/1999/xlink" x="0px" y="0px"
	 width="8.466px" height="8.703px" viewBox="0 0 8.466 8.703" enable-background="new 0 0 8.466 8.703" xml:space="preserve">
<g>
	<path fill="none" stroke="#EF3E23" stroke-width="0.35" stroke-miterlimit="10" d="M5.729,4.351c0,0.826-0.67,1.496-1.496,1.496
		l0,0c-0.826,0-1.496-0.67-1.496-1.496l0,0c0-0.826,0.67-1.496,1.496-1.496l0,0C5.06,2.855,5.729,3.525,5.729,4.351L5.729,4.351z"/>
	<polygon fill="none" stroke="#EF3E23" stroke-width="0.35" stroke-miterlimit="10" points="1.364,3.577 1.733,2.779 0.995,1.773 
		1.733,1.036 2.76,1.691 3.578,1.322 3.578,0.175 4.848,0.175 4.848,1.363 5.752,1.732 6.816,1.036 7.513,1.876 6.775,2.779 
		7.103,3.577 8.292,3.782 8.292,4.807 7.103,5.012 6.775,5.771 7.472,6.774 6.816,7.594 5.752,6.897 5.053,7.184 4.848,8.528 
		3.66,8.528 3.537,7.143 2.76,6.815 1.651,7.553 0.995,6.692 1.692,5.771 1.364,4.93 0.175,4.766 0.175,3.659 	"/>
</g>
</svg>
